:version 1.10
:name ASF
:units
  mass 1
  length 1
  angle deg
:documentation
  ASF file generated by Kaydara
:root
  axis xyz
  order  tx ty tz rx ry rz
  position 0 0 0
  orientation 0 0 0
:bonedata
  begin
    id 1
    name RightUpLegDummy
    direction -0.718183 -0.695806 0.00816078
    length 4.904
    axis 0 0 0 xyz
  end
  begin
    id 2
    name RightUpLeg
    direction -0.0736652 -0.994202 0.0783343
    length 17.4976
    axis -2.72909 -3.00389 -4.00133 xyz
    dof rx ry rz
  end
  begin
    id 3
    name RightLeg
    direction -0.0389037 -0.994596 -0.0962598
    length 16.5821
    axis 3.95836 -18.5909 -4.46993 xyz
    dof rx ry rz
  end
  begin
    id 4
    name RightFoot
    direction -0.311643 -0.412678 0.855906
    length 3.77069
    axis -1.99483 -18.8351 -3.27644 xyz
    dof rx ry rz
  end
  begin
    id 5
    name RightToes
    direction -0.317852 0.0389852 0.947339
    length 3.85082
    axis -2.00228 -18.1713 -3.25211 xyz
    dof rx ry rz
  end
  begin
    id 6
    name SpineDummy
    direction 8.3039e-015 1 4.44677e-016
    length 4.6813
    axis 0 0 0 xyz
  end
  begin
    id 7
    name Spine
    direction -0.000262373 0.999988 0.00493267
    length 10.1015
    axis -0.00246081 0.00062579 0.0150362 xyz
    dof rx ry rz
  end
  begin
    id 8
    name Spine1
    direction 0 0 0
    length 0
    axis -0.00349562 0.000650293 0.0196666 xyz
    dof rx ry rz
  end
  begin
    id 9
    name HEadDummy
    direction -0.000343232 0.999999 0.00123745
    length 3.43865
    axis -0.00349562 0.000650293 0.0196666 xyz
  end
  begin
    id 10
    name HEad
    direction -0.0461221 0.980933 0.188796
    length 5.12695
    axis -0.00351404 -7.04812 0.0199272 xyz
    dof rx ry rz
  end
  begin
    id 11
    name LeftShoulder1Dummy
    direction 0.998904 -0.0399089 -0.0244534
    length 3.5433
    axis -0.00349562 0.000650293 0.0196666 xyz
  end
  begin
    id 12
    name LeftShoulder1
    direction 0.99951 1.64443e-005 0.0312999
    length 4.05031
    axis -0.00349562 0.000650293 0.0196666 xyz
    dof rx ry rz
  end
  begin
    id 13
    name LeftArm
    direction 0.984791 0.0515299 0.165927
    length 12.9126
    axis -64.823 -10.7743 5.20463 xyz
    dof rx ry rz
  end
  begin
    id 14
    name LeftForeArm
    direction 0.984968 0.0534808 0.16425
    length 10.8596
    axis -30.0462 -7.70601 1.87451 xyz
    dof rx ry rz
  end
  begin
    id 15
    name LeftHand
    direction 0.975871 0.0289682 0.216418
    length 6.62295
    axis -20.1348 -6.98077 1.86072 xyz
    dof rx ry rz
  end
  begin
    id 16
    name RightShoulderDummy
    direction -0.998877 -0.0405946 -0.0244307
    length 3.5433
    axis -0.00349562 0.000650293 0.0196666 xyz
  end
  begin
    id 17
    name RightShoulder
    direction -0.998933 -0.0249743 -0.0388558
    length 4.05031
    axis -0.0205316 -4.02113 1.41395 xyz
    dof rx ry rz
  end
  begin
    id 18
    name RightArm
    direction -0.997559 0.068664 0.0127103
    length 12.9638
    axis -67.3882 1.84188 -6.15987 xyz
    dof rx ry rz
  end
  begin
    id 19
    name RightForeArm
    direction -0.991508 0.0912848 0.0926241
    length 10.8312
    axis -22.1975 3.41087 -4.28711 xyz
    dof rx ry rz
  end
  begin
    id 20
    name RightHand
    direction -0.989262 0.0600788 0.133232
    length 6.57864
    axis -12.2911 2.17515 -4.39675 xyz
    dof rx ry rz
  end
  begin
    id 21
    name LeftUpLegDummy
    direction 0.718183 -0.695806 0.00816078
    length 4.904
    axis 0 0 0 xyz
  end
  begin
    id 22
    name LeftUpLeg
    direction 0.0831398 -0.99469 0.0606531
    length 17.4976
    axis -1.71016 2.29552 4.63832 xyz
    dof rx ry rz
  end
  begin
    id 23
    name LeftLeg
    direction 0.0498442 -0.991778 -0.117862
    length 16.5821
    axis 5.13757 15.5727 5.13348 xyz
    dof rx ry rz
  end
  begin
    id 24
    name LeftFoot
    direction 0.269026 -0.433896 0.85986
    length 3.77069
    axis -0.576502 15.6961 4.10267 xyz
    dof rx ry rz
  end
  begin
    id 25
    name LeftToes
    direction 0.277311 0.0251143 0.960452
    length 3.85048
    axis -0.576502 15.6961 4.10267 xyz
    dof rx ry rz
  end
:hierarchy
  begin
    root RightUpLegDummy SpineDummy LeftUpLegDummy
    RightUpLegDummy RightUpLeg
    RightUpLeg RightLeg
    RightLeg RightFoot
    RightFoot RightToes
    SpineDummy Spine
    Spine Spine1
    Spine1 HEadDummy LeftShoulder1Dummy RightShoulderDummy
    HEadDummy HEad
    LeftShoulder1Dummy LeftShoulder1
    LeftShoulder1 LeftArm
    LeftArm LeftForeArm
    LeftForeArm LeftHand
    RightShoulderDummy RightShoulder
    RightShoulder RightArm
    RightArm RightForeArm
    RightForeArm RightHand
    LeftUpLegDummy LeftUpLeg
    LeftUpLeg LeftLeg
    LeftLeg LeftFoot
    LeftFoot LeftToes
  end

:SAMPLES-PER-SECOND 30
:FULLY-SPECIFIED
:DEGREES
31
root  11.0118 34.6967 -52.7495 21.9879 -2.98071 -3.24253
RightUpLeg  -37.5929 -13.9242 3.88576
RightLeg  58.7074 13.8128 -4.67992
RightFoot  -25.3473 1.53127 13.951
RightToes  -5.82073e-011 -3.18055e-015 -2.98177e-016
Spine  32.0505 0.843906 13.2246
Spine1  -22.3587 3.64764 -0.844243
HEad  -30.1727 3.98532 -0.461177
LeftShoulder1  -3.88251e-019 9.70628e-020 -3.87848e-018
LeftArm  -9.94647 5.50181 -75.918
LeftForeArm  -35.5008 -72.7441 37.736
LeftHand  -1.6089 -6.55908 16.319
RightShoulder  0.991696 5.02789 3.73267
RightArm  1.81395 4.55168 63.2706
RightForeArm  -18.5673 59.4374 -47.3728
RightHand  -4.82057 12.1847 -30.9867
LeftUpLeg  -27.4916 10.5516 -6.19589
LeftLeg  53.63 -6.42412 11.7983
LeftFoot  -29.9946 -1.91942 -12.3816
LeftToes  1.2018e-011 -3.94675e-011 -1.33631e-011
32
root  11.2773 37.0184 -49.6721 18.1354 -0.76944 -1.26845
RightUpLeg  -22.8998 -15.8656 -1.3396
RightLeg  46.1831 13.5309 -3.38967
RightFoot  -13.226 0.0259347 18.9215
RightToes  -5.82073e-011 -3.18055e-015 -2.98177e-016
Spine  26.4838 0.126251 12.4087
Spine1  -20.2615 2.55693 -0.678563
HEad  -21.6163 2.22646 0.934791
LeftShoulder1  -3.88251e-019 9.70628e-020 -3.87848e-018
LeftArm  -7.2528 3.44513 -73.8804
LeftForeArm  -79.5651 -78.7307 85.2567
LeftHand  -1.9761 -8.09052 17.6691
RightShoulder  0.2134 3.32624 -1.41052
RightArm  -0.570073 3.40054 66.8674
RightForeArm  -32.2872 64.5536 -64.9273
RightHand  -5.33596 11.8164 -34.7846
LeftUpLeg  -14.4802 13.3212 -4.87286
LeftLeg  41.2217 -8.366 5.92624
LeftFoot  -12.1098 0.0849055 -13.1211
LeftToes  1.2018e-011 -3.94675e-011 -1.33631e-011
33
root  11.5066 39.1656 -46.2412 16.2187 2.41531 1.12804
RightUpLeg  -11.0489 -12.1375 -5.73797
RightLeg  33.6186 11.8046 -3.91821
RightFoot  6.16835 -3.09356 18.4023
RightToes  -5.82073e-011 -3.18055e-015 -2.98177e-016
Spine  17.2562 -0.541557 9.96188
Spine1  -16.8211 0.971657 0.46854
HEad  -10.5773 -0.222302 1.2177
LeftShoulder1  -3.88251e-019 9.70628e-020 -3.87848e-018
LeftArm  -5.59337 0.0186588 -70.8961
LeftForeArm  -104.331 -77.9101 111.934
LeftHand  -2.34761 -9.24196 19.2636
RightShoulder  -0.340463 1.14301 -5.34714
RightArm  -2.76861 1.82048 69.8848
RightForeArm  -44.8799 66.4493 -78.108
RightHand  -5.72782 11.3035 -38.2293
LeftUpLeg  -5.92424 13.2957 -3.27049
LeftLeg  31.934 -11.4294 2.22766
LeftFoot  10.842 2.9018 -13.482
LeftToes  1.2018e-011 -3.94675e-011 -1.33631e-011
34
root  11.6381 40.6346 -43.2561 16.916 5.7095 3.17635
RightUpLeg  -7.53596 -5.10248 -6.48826
RightLeg  31.0038 13.1422 -2.56575
RightFoot  20.6096 -4.01207 12.7206
RightToes  -5.82073e-011 -3.18055e-015 -2.98177e-016
Spine  9.26558 -1.2058 6.28673
Spine1  -16.9599 -0.441737 1.86809
HEad  1.69535 -1.09801 1.87617
LeftShoulder1  -3.88251e-019 9.70628e-020 -3.87848e-018
LeftArm  -5.52471 -3.81279 -68.005
LeftForeArm  -103.872 -78.1158 110.806
LeftHand  -2.73849 -9.51666 21.9023
RightShoulder  -0.605185 -0.0155973 -7.8746
RightArm  -4.97713 0.184331 69.9922
RightForeArm  -54.8778 67.0687 -86.9445
RightHand  -5.58501 10.8738 -38.2394
LeftUpLeg  -6.89333 10.3968 -2.73542
LeftLeg  35.4217 -12.5608 1.66366
LeftFoot  23.9814 4.63606 -13.5908
LeftToes  1.2018e-011 -3.94675e-011 -1.33631e-011
35
root  11.7381 41.6394 -40.9602 17.1377 8.47025 3.9192
RightUpLeg  -10.0534 -5.77096 -5.41876
RightLeg  42.1743 18.9511 2.4384
RightFoot  21.3958 -2.82464 8.67328
RightToes  -5.82073e-011 -3.18055e-015 -2.98177e-016
Spine  7.566 -2.07283 3.7402
Spine1  -20.2212 -1.30642 2.98114
HEad  11.4869 -0.683738 3.72403
LeftShoulder1  -3.88251e-019 9.70628e-020 -3.87848e-018
LeftArm  -6.54381 -7.41161 -65.6679
LeftForeArm  -90.4028 -78.979 94.4524
LeftHand  -3.62908 -10.5071 26.8679
RightShoulder  -0.68797 0.331148 -9.168
RightArm  -7.95097 -0.881082 65.548
RightForeArm  -65.4012 67.2379 -94.6493
RightHand  -5.4222 10.688 -37.6071
LeftUpLeg  -13.4937 7.97922 -1.63118
LeftLeg  52.0745 -11.9211 3.22155
LeftFoot  24.1975 4.53561 -13.1797
LeftToes  1.2018e-011 -3.94675e-011 -1.33631e-011
36
root  11.8847 42.3504 -39.0804 14.6039 10.6799 3.0946
RightUpLeg  -13.2578 -12.0699 -3.96055
RightLeg  58.9686 19.8173 6.06969
RightFoot  14.9536 -2.19646 8.60073
RightToes  -5.82073e-011 -3.18055e-015 -2.98177e-016
Spine  10.2894 -2.73747 3.69812
Spine1  -20.4951 -1.59039 2.68217
HEad  14.4157 -1.92187 3.77816
LeftShoulder1  -3.88251e-019 9.70628e-020 -3.87848e-018
LeftArm  -7.42574 -11.3501 -64.2417
LeftForeArm  -67.57 -78.3854 69.9253
LeftHand  -4.73838 -11.9166 31.9992
RightShoulder  -0.709283 0.477437 -9.49553
RightArm  -12.2562 -1.77651 57.5901
RightForeArm  -77.1221 67.136 -101.666
RightHand  -5.7465 10.6143 -39.8404
LeftUpLeg  -19.6594 7.4825 1.32207
LeftLeg  72.8452 -12.3404 5.18506
LeftFoot  19.8925 3.40619 -11.2722
LeftToes  1.2018e-011 -3.94675e-011 -1.33631e-011
37
root  12.0216 42.8954 -37.3579 11.0242 11.7689 1.74062
RightUpLeg  -16.7718 -16.8878 -2.51939
RightLeg  72.1257 17.1177 3.44596
RightFoot  7.85312 -2.19446 11.5249
RightToes  -5.82073e-011 -3.18055e-015 -2.98177e-016
Spine  13.5152 -2.83927 4.50451
Spine1  -17.5991 -1.35627 0.98178
HEad  16.0239 -3.01081 4.27822
LeftShoulder1  -3.88251e-019 9.70628e-020 -3.87848e-018
LeftArm  -7.59713 -13.415 -63.2448
LeftForeArm  -50.7185 -76.4085 53.155
LeftHand  -4.93274 -12.2888 32.4886
RightShoulder  -0.711348 -0.0822526 -9.29525
RightArm  -16.5297 -6.14774 48.2133
RightForeArm  -87.7516 66.9364 -106.828
RightHand  -5.95183 10.0654 -42.492
LeftUpLeg  -25.6754 7.97343 4.72134
LeftLeg  91.6728 -13.8388 5.45185
LeftFoot  15.1235 1.63406 -6.25867
LeftToes  1.2018e-011 -3.94675e-011 -1.33631e-011
38
root  12.1301 43.1946 -35.7609 8.75387 11.7774 0.706856
RightUpLeg  -23.4728 -19.2015 -0.199949
RightLeg  81.0506 15.7827 -1.50542
RightFoot  2.41821 -1.5147 10.709
RightToes  -5.82073e-011 -3.18055e-015 -2.98177e-016
Spine  16.2488 -2.57386 4.69576
Spine1  -15.1325 -0.962387 -0.510469
HEad  17.2482 -3.47922 4.35917
LeftShoulder1  -3.88251e-019 9.70628e-020 -3.87848e-018
LeftArm  -7.54304 -11.4259 -61.4755
LeftForeArm  -46.4603 -75.5342 48.333
LeftHand  -3.9787 -11.7247 27.2998
RightShoulder  -0.61333 -0.0153037 -8.05873
RightArm  -17.891 -14.3933 37.9933
RightForeArm  -94.5481 66.9084 -108.89
RightHand  -5.38462 9.16303 -40.8924
LeftUpLeg  -34.1536 9.12669 6.7761
LeftLeg  106.193 -15.7299 6.88482
LeftFoot  8.83512 -0.33193 1.956
LeftToes  1.2018e-011 -3.94675e-011 -1.33631e-011
39
root  12.2371 43.1075 -34.087 7.4513 11.435 0.730114
RightUpLeg  -31.5569 -20.0581 2.43796
RightLeg  84.9934 15.6641 -5.84342
RightFoot  -1.99746 -0.557819 5.6371
RightToes  -5.82073e-011 -3.18055e-015 -2.98177e-016
Spine  19.2181 -2.30649 3.23849
Spine1  -13.809 -1.06082 -1.00422
HEad  17.5918 -2.86227 3.612
LeftShoulder1  -3.88251e-019 9.70628e-020 -3.87848e-018
LeftArm  -7.57639 -5.10102 -58.5923
LeftForeArm  -50.006 -75.8647 49.4084
LeftHand  -2.96614 -10.7937 21.868
RightShoulder  -0.268309 1.89118 -5.15033
RightArm  -14.732 -23.1972 25.7414
RightForeArm  -95.9814 67.2603 -106.807
RightHand  -4.5381 8.82279 -35.732
LeftUpLeg  -43.5735 10.262 6.30104
LeftLeg  113.027 -19.8523 13.6262
LeftFoot  0.774498 -1.13736 9.26285
LeftToes  1.2018e-011 -3.94675e-011 -1.33631e-011
40
root  12.3988 42.7785 -32.1275 5.64722 11.2395 1.74222
RightUpLeg  -36.7611 -19.7927 3.9132
RightLeg  81.6124 15.091 -9.2959
RightFoot  -6.2402 -0.156114 3.01063
RightToes  -5.82073e-011 -3.18055e-015 -2.98177e-016
Spine  21.2374 -2.23904 1.33761
Spine1  -9.22906 -1.46602 -2.5137
HEad  15.8344 -1.8663 2.46597
LeftShoulder1  -3.88251e-019 9.70628e-020 -3.87848e-018
LeftArm  -8.03178 1.98124 -55.6588
LeftForeArm  -45.8942 -74.6236 43.3456
LeftHand  -2.64621 -9.90752 20.6893
RightShoulder  0.313399 3.86753 -0.93809
RightArm  -8.82931 -30.3565 13.6218
RightForeArm  -92.0478 67.7665 -100.9
RightHand  -3.93153 8.77669 -31.3067
LeftUpLeg  -50.4601 10.0207 4.09317
LeftLeg  110.152 -23.4039 22.3223
LeftFoot  -7.52053 -0.626719 11.9522
LeftToes  1.2018e-011 -3.94675e-011 -1.33631e-011
41
root  12.6496 42.3413 -30.0565 3.42856 10.8679 2.43962
RightUpLeg  -38.4224 -18.2731 4.72913
RightLeg  71.0492 13.0059 -11.1429
RightFoot  -9.19847 -0.0952096 3.3447
RightToes  -5.82073e-011 -3.18055e-015 -2.98177e-016
Spine  21.7455 -2.44694 1.21719
Spine1  -2.25124 -1.38895 -5.83116
HEad  12.9302 -1.62641 0.59923
LeftShoulder1  -3.88251e-019 9.70628e-020 -3.87848e-018
LeftArm  -9.20478 8.46515 -53.5226
LeftForeArm  -32.0938 -69.2333 29.6984
LeftHand  -2.60654 -9.08549 21.5159
RightShoulder  0.928579 4.87856 3.37022
RightArm  -1.32082 -37.1778 4.77062
RightForeArm  -82.0559 67.9852 -91.5158
RightHand  -3.40061 7.94768 -28.8697
LeftUpLeg  -53.7162 8.3354 2.78796
LeftLeg  101.051 -20.7325 25.0162
LeftFoot  -13.3889 -0.0106964 10.8724
LeftToes  1.2018e-011 -3.94675e-011 -1.33631e-011
42
root  13.001 41.7567 -27.9694 1.9715 10.0549 1.78378
RightUpLeg  -37.7424 -16.4452 6.57457
RightLeg  55.38 10.5134 -9.89257
RightFoot  -12.6676 0.0240248 2.64955
RightToes  -5.82073e-011 -3.18055e-015 -2.98177e-016
Spine  21.3391 -2.72769 3.13878
Spine1  2.80093 -0.980461 -8.28392
HEad  10.1153 -2.35129 -2.29588
LeftShoulder1  -3.88251e-019 9.70628e-020 -3.87848e-018
LeftArm  -10.96 16.6818 -51.8129
LeftForeArm  -22.7255 -61.8559 20.735
LeftHand  -2.63397 -8.99663 21.8651
RightShoulder  1.55897 5.62285 7.5131
RightArm  7.41696 -43.42 -1.11222
RightForeArm  -66.331 67.3135 -78.3403
RightHand  -2.98066 6.88416 -27.5422
LeftUpLeg  -54.0465 6.42861 3.33977
LeftLeg  88.3233 -14.5205 20.9241
LeftFoot  -15.6349 0.13433 7.85877
LeftToes  1.2018e-011 -3.94675e-011 -1.33631e-011
43
root  13.3879 40.7838 -25.7048 1.85699 9.63947 1.02786
RightUpLeg  -35.6085 -16.0435 8.67987
RightLeg  37.1844 11.0935 -5.09704
RightFoot  -17.8355 0.174724 2.95845
RightToes  -5.82073e-011 -3.18055e-015 -2.98177e-016
Spine  20.2173 -2.69569 4.40611
Spine1  5.02555 -1.03219 -8.55775
HEad  9.37661 -2.13728 -3.74836
LeftShoulder1  -3.88251e-019 9.70628e-020 -3.87848e-018
LeftArm  -12.7713 28.2901 -50.5567
LeftForeArm  -20.575 -57.3586 17.0194
LeftHand  -2.88031 -9.83784 22.53
RightShoulder  2.31411 6.48239 11.9505
RightArm  16.5327 -48.2444 -6.57929
RightForeArm  -50.6088 65.2449 -64.4042
RightHand  -2.80083 6.76854 -26.1777
LeftUpLeg  -52.4843 5.00821 3.51817
LeftLeg  72.0887 -9.66382 16.011
LeftFoot  -17.9063 0.118313 4.1986
LeftToes  1.2018e-011 -3.94675e-011 -1.33631e-011
44
root  13.7504 39.192 -23.2431 2.28283 10.0491 1.36206
RightUpLeg  -33.7072 -13.8149 7.82368
RightLeg  22.6762 11.6543 -1.36937
RightFoot  -17.0932 0.175359 3.63426
RightToes  -5.82073e-011 -3.18055e-015 -2.98177e-016
Spine  18.8909 -2.55344 4.15404
Spine1  5.45035 -1.10736 -9.07489
HEad  9.29706 -1.55472 -4.04324
LeftShoulder1  -3.88251e-019 9.70628e-020 -3.87848e-018
LeftArm  -13.9011 41.788 -50.0394
LeftForeArm  -23.0112 -56.5176 16.1769
LeftHand  -2.97779 -10.0845 22.8955
RightShoulder  3.21879 7.29571 16.9531
RightArm  25.8097 -51.6893 -14.5087
RightForeArm  -40.1889 62.5827 -54.1803
RightHand  -2.58401 7.49153 -22.9144
LeftUpLeg  -49.6088 4.34385 1.87769
LeftLeg  54.9373 -7.86083 10.1606
LeftFoot  -20.3561 0.0210832 1.06369
LeftToes  1.2018e-011 -3.94675e-011 -1.33631e-011
45
root  14.237 37.2009 -20.9698 1.77153 8.95721 1.06701
RightUpLeg  -35.0808 -5.63072 4.58705
RightLeg  21.7376 5.7946 -2.21569
RightFoot  -7.74233 0.135388 -0.622515
RightToes  -5.82073e-011 -3.18055e-015 -2.98177e-016
Spine  19.0212 -2.23984 6.254
Spine1  4.44268 -0.108931 -11.2197
HEad  6.75609 -1.62742 -4.53171
LeftShoulder1  -3.88251e-019 9.70628e-020 -3.87848e-018
LeftArm  -14.3231 54.6184 -50.1923
LeftForeArm  -26.4861 -57.2098 16.4074
LeftHand  -2.71445 -9.37279 21.9381
RightShoulder  4.21945 7.97158 22.2488
RightArm  32.6897 -53.3874 -22.9781
RightForeArm  -32.9448 59.965 -47.1705
RightHand  -2.32402 8.05552 -19.8263
LeftUpLeg  -46.2262 4.58923 0.951716
LeftLeg  41.5051 -9.8812 4.27679
LeftFoot  -15.7512 -0.0585977 -1.37652
LeftToes  1.2018e-011 -3.94675e-011 -1.33631e-011
